# xmcd
#
# Track frame offsets: 
#        150
#        9847
#        20637
#        29010
#        40222
#        50675
#        63022
#        75247
#        88162
#        98742
#        111440
#        121325
#        132037
#        143962
#        157912
#
# Disc length: 2283 seconds
#
# Revision: 18
# Processed by: cddbd v1.5.2PL0 Copyright (c) Steve Scherf et al.
# Submitted via: ExactAudioCopyFreeDBPlugin 1.0
#
DISCID=ba08e90f
DTITLE=Various Artist - Classic Country: 1960-1964 [CD1]
DYEAR=1999
DGENRE=Country
TTITLE0=George Jones - The Race Is On
TTITLE1=Hank Locklin - Please Help Me, I'm Falling
TTITLE2=Roger Miller - Dang Me
TTITLE3=Floyd Cramer with The Music City Pops - Last Date
TTITLE4=Ferlin Husky - The Wings of A Dove
TTITLE5=Patsy Cline - Crazy
TTITLE6=Brenda Lee - I'm Sorry
TTITLE7=Johnny Horton - North To Alaska
TTITLE8=Jim Reeves - He'll Have To Go
TTITLE9=Bill Anderson - Still
TTITLE10=Ned Miller - From A Jack To A King
TTITLE11=Leroy Van Dyke - Walk On By
TTITLE12=Johnny Cash - Ring of Fire
TTITLE13=Lefty Frizzell - Saginaw, Michigan
TTITLE14=Claude King - Wolverton Mountain
EXTD=
EXTT0=
EXTT1=
EXTT2=
EXTT3=
EXTT4=
EXTT5=
EXTT6=
EXTT7=
EXTT8=
EXTT9=
EXTT10=
EXTT11=
EXTT12=
EXTT13=
EXTT14=
PLAYORDER=
